# File created by Blade
# Date/Time:  Mon Sep 22 16:09:39 2014
# Frame Rate: 120.000 fps
#------------------------------------------------------
:FULLY-SPECIFIED
:DEGREES
871
root 2.513045 37.056536 1.851020 0.669564 -3.621294 1.531684
RightUpLeg 6.352993 -6.207402 -2.396705
RightLeg -4.917981 -0.000000 0.000000
RightFoot -12.496979 -15.197774 15.902772
RightToeBase 14.872087 -0.000000 -0.000000
LeftUpLeg 4.086240 1.199640 2.055370
LeftLeg -1.458740 -0.000000 0.000000
LeftFoot -9.705117 13.543100 -17.413937
LeftToeBase 9.760064 -0.000000 -0.000000
Spine 0.645203 9.161990 -1.524454
RightShoulder 13.518775 -25.803072 -17.601897
RightArm 32.017970 -35.587127 62.594107
RightForeArm 88.152715 -0.000000 100.562075
RightHand 0.326241 0.000000 1.145110
RightHandThumb1 -24.326973 -0.000000 -32.862282
LeftShoulder -18.046654 36.307269 -4.453526
LeftArm 46.946915 24.403495 -52.086766
LeftForeArm 20.928169 -0.000000 31.573618
LeftHand -13.088525 -0.000000 -10.835635
LeftHandThumb1 -26.253704 0.000000 33.147579
Head 1.225771 -7.717014 5.995235
872
root 2.503831 37.058111 1.850904 0.699052 -3.883996 1.511410
RightUpLeg 6.284637 -6.032924 -2.366987
RightLeg -4.922929 -0.000000 0.000000
RightFoot -12.457224 -15.114906 15.924401
RightToeBase 14.923265 -0.000000 -0.000000
LeftUpLeg 4.105378 1.381396 2.080162
LeftLeg -1.476828 -0.000000 0.000000
LeftFoot -9.737151 13.628198 -17.454802
LeftToeBase 9.661503 -0.000000 -0.000000
Spine 0.590870 9.351421 -1.552190
RightShoulder 13.939034 -25.468854 -17.926216
RightArm 33.763250 -37.671418 60.499066
RightForeArm 88.668905 -0.000000 99.507129
RightHand -1.568095 -0.000000 0.528192
RightHandThumb1 -24.326973 -0.000000 -32.862282
LeftShoulder -17.977771 36.318679 -4.420083
LeftArm 46.888565 24.416926 -52.053824
LeftForeArm 20.891787 -0.000000 31.422469
LeftHand -13.056491 -0.000000 -10.946519
LeftHandThumb1 -26.253704 0.000000 33.147579
Head 1.242676 -7.786976 6.007081
873
root 2.492206 37.058896 1.849595 0.741112 -4.161185 1.481056
RightUpLeg 6.199868 -5.839246 -2.320546
RightLeg -4.919277 -0.000000 0.000000
RightFoot -12.403255 -15.037501 15.922510
RightToeBase 14.887003 -0.000000 -0.000000
LeftUpLeg 4.110271 1.582211 2.119963
LeftLeg -1.485662 -0.000000 0.000000
LeftFoot -9.775738 13.692092 -17.491772
LeftToeBase 9.651097 -0.000000 -0.000000
Spine 0.524338 9.640925 -1.582159
RightShoulder 14.371665 -25.185086 -18.239643
RightArm 35.556481 -39.618746 58.498679
RightForeArm 89.199353 -0.000000 97.969626
RightHand -3.352067 -0.000000 1.531269
RightHandThumb1 -24.326973 -0.000000 -32.862282
LeftShoulder -17.853734 36.318999 -4.344722
LeftArm 46.910227 24.485118 -51.924690
LeftForeArm 20.849721 -0.000000 31.218864
LeftHand -13.037768 -0.000000 -11.133182
LeftHandThumb1 -26.253704 0.000000 33.147579
Head 1.236570 -7.921211 6.057274
874
root 2.481089 37.058339 1.842755 0.790333 -4.431445 1.455932
RightUpLeg 6.088128 -5.677075 -2.278571
RightLeg -4.882072 -0.000000 0.000000
RightFoot -12.372050 -14.940203 15.877150
RightToeBase 14.864143 -0.000000 -0.000000
LeftUpLeg 4.083893 1.751195 2.149089
LeftLeg -1.470212 -0.000000 0.000000
LeftFoot -9.824377 13.795773 -17.489868
LeftToeBase 9.722772 -0.000000 -0.000000
Spine 0.473517 9.979834 -1.632077
RightShoulder 14.884021 -24.850511 -18.491523
RightArm 36.694728 -41.130593 57.061042
RightForeArm 89.695562 -0.000000 96.296297
RightHand -6.815474 -0.000000 3.332671
RightHandThumb1 -24.326973 -0.000000 -32.862282
LeftShoulder -17.717000 36.227154 -4.223656
LeftArm 46.981947 24.665177 -51.713120
LeftForeArm 20.802315 -0.000000 30.968759
LeftHand -12.963860 0.000000 -11.220726
LeftHandThumb1 -26.253704 0.000000 33.147579
Head 1.173093 -8.076220 6.169263
875
root 2.468346 37.056926 1.838282 0.807993 -4.697217 1.415959
RightUpLeg 6.017741 -5.511623 -2.223879
RightLeg -4.859297 -0.000000 0.000000
RightFoot -12.334980 -14.863138 15.808439
RightToeBase 14.915467 -0.000000 -0.000000
LeftUpLeg 4.094597 1.883708 2.196376
LeftLeg -1.449885 -0.000000 0.000000
LeftFoot -9.918826 13.921867 -17.539880
LeftToeBase 9.644578 -0.000000 -0.000000
Spine 0.489765 10.449548 -1.670846
RightShoulder 15.310723 -24.686129 -18.695346
RightArm 37.675588 -42.275350 55.847572
RightForeArm 90.646267 -0.000000 94.390997
RightHand -10.071845 -0.000000 6.859230
RightHandThumb1 -24.326973 -0.000000 -32.862282
LeftShoulder -17.520655 36.079385 -4.040167
LeftArm 47.154222 24.911456 -51.405960
LeftForeArm 20.700953 -0.000000 30.665820
LeftHand -12.898565 -0.000000 -11.119409
LeftHandThumb1 -26.253704 0.000000 33.147579
Head 0.992412 -8.340223 6.348496
876
root 2.456186 37.055672 1.837483 0.775130 -4.942827 1.374776
RightUpLeg 6.015650 -5.361341 -2.170266
RightLeg -4.854067 -0.000000 0.000000
RightFoot -12.309454 -14.791758 15.800906
RightToeBase 14.941540 -0.000000 -0.000000
LeftUpLeg 4.149428 2.024486 2.244077
LeftLeg -1.411056 -0.000000 0.000000
LeftFoot -9.994534 14.026923 -17.528083
LeftToeBase 9.626093 -0.000000 -0.000000
Spine 0.576312 10.957795 -1.715502
RightShoulder 15.684612 -24.601823 -18.791591
RightArm 38.671318 -43.361253 54.431840
RightForeArm 91.726110 0.000000 92.328596
RightHand -11.369299 0.000000 11.939496
RightHandThumb1 -24.326973 -0.000000 -32.862282
LeftShoulder -17.331085 35.883166 -3.841338
LeftArm 47.411006 25.213670 -51.042083
LeftForeArm 20.783053 -0.000000 30.313820
LeftHand -12.908042 0.000000 -11.409001
LeftHandThumb1 -26.253704 0.000000 33.147579
Head 0.749877 -8.627124 6.611405
877
root 2.442797 37.053340 1.836270 0.658014 -5.142844 1.326108
RightUpLeg 6.104934 -5.269522 -2.123927
RightLeg -4.846723 -0.000000 0.000000
RightFoot -12.251583 -14.675397 15.750200
RightToeBase 14.881772 -0.000000 -0.000000
LeftUpLeg 4.270925 2.095804 2.303424
LeftLeg -1.349028 -0.000000 0.000000
LeftFoot -10.115342 14.147546 -17.541258
LeftToeBase 9.655316 -0.000000 -0.000000
Spine 0.807748 11.519274 -1.732683
RightShoulder 16.007925 -24.599418 -18.850117
RightArm 39.510795 -44.180305 53.104643
RightForeArm 93.363097 -0.000000 90.567695
RightHand -11.244190 -0.000000 16.497415
RightHandThumb1 -24.326973 -0.000000 -32.862282
LeftShoulder -17.085804 35.689368 -3.613039
LeftArm 47.763084 25.482817 -50.652759
LeftForeArm 20.809713 -0.000000 29.953076
LeftHand -12.820281 -0.000000 -11.682660
LeftHandThumb1 -26.253704 0.000000 33.147579
Head 0.382765 -8.976257 6.941143
878
root 2.431061 37.051065 1.833649 0.514982 -5.313172 1.280674
RightUpLeg 6.208517 -5.222272 -2.080026
RightLeg -4.812753 -0.000000 0.000000
RightFoot -12.227713 -14.561313 15.705826
RightToeBase 14.903203 -0.000000 -0.000000
LeftUpLeg 4.408735 2.124931 2.356444
LeftLeg -1.279583 -0.000000 0.000000
LeftFoot -10.233870 14.274994 -17.564678
LeftToeBase 9.683816 -0.000000 -0.000000
Spine 1.100018 12.040673 -1.737078
RightShoulder 16.321693 -24.725775 -18.885465
RightArm 40.146959 -44.663904 51.936548
RightForeArm 94.626422 -0.000000 89.516670
RightHand -10.340359 -0.000000 19.345950
RightHandThumb1 -24.326973 -0.000000 -32.862282
LeftShoulder -16.913787 35.512973 -3.447798
LeftArm 48.168706 25.709546 -50.241966
LeftForeArm 20.909638 0.000000 29.631733
LeftHand -12.700084 -0.000000 -11.973651
LeftHandThumb1 -26.253704 0.000000 33.147579
Head -0.064494 -9.256011 7.294805
879
root 2.415078 37.049561 1.827859 0.336640 -5.443305 1.187778
RightUpLeg 6.379295 -5.080473 -1.976992
RightLeg -4.833423 -0.000000 0.000000
RightFoot -12.187084 -14.571856 15.712046
RightToeBase 14.943150 -0.000000 -0.000000
LeftUpLeg 4.577303 2.102340 2.466768
LeftLeg -1.213362 -0.000000 0.000000
LeftFoot -10.352750 14.418498 -17.551851
LeftToeBase 9.662873 -0.000000 -0.000000
Spine 1.475926 12.575884 -1.671047
RightShoulder 16.544140 -24.857755 -18.892046
RightArm 40.193798 -44.716754 51.482338
RightForeArm 95.035089 -0.000000 89.191548
RightHand -9.876209 -0.000000 19.699715
RightHandThumb1 -24.326973 -0.000000 -32.862282
LeftShoulder -16.702410 35.345627 -3.259848
LeftArm 48.595403 25.897298 -49.876996
LeftForeArm 21.073423 0.000000 29.353764
LeftHand -12.697777 -0.000000 -12.167565
LeftHandThumb1 -26.253704 0.000000 33.147579
Head -0.604358 -9.555492 7.692888
880
root 2.405589 37.047398 1.816216 0.171373 -5.480412 1.126846
RightUpLeg 6.518116 -5.044106 -1.922187
RightLeg -4.809056 -0.000000 0.000000
RightFoot -12.166204 -14.524618 15.707448
RightToeBase 14.929286 -0.000000 -0.000000
LeftUpLeg 4.699965 1.974849 2.534549
LeftLeg -1.134431 -0.000000 0.000000
LeftFoot -10.466183 14.566594 -17.563838
LeftToeBase 9.645308 -0.000000 -0.000000
Spine 1.857404 12.986770 -1.618196
RightShoulder 16.666469 -24.931847 -18.915674
RightArm 39.927872 -44.558162 51.536599
RightForeArm 94.862187 -0.000000 89.070337
RightHand -9.459905 0.000000 19.407508
RightHandThumb1 -24.326973 -0.000000 -32.862282
LeftShoulder -16.492586 35.195405 -3.065540
LeftArm 48.912951 26.002648 -49.674570
LeftForeArm 21.164425 -0.000000 29.189907
LeftHand -12.688857 -0.000000 -11.878748
LeftHandThumb1 -26.253704 0.000000 33.147579
Head -1.171552 -9.769902 8.078518
881
root 2.397978 37.045744 1.803875 0.035622 -5.464485 1.073351
RightUpLeg 6.630704 -5.045808 -1.870112
RightLeg -4.781431 -0.000000 0.000000
RightFoot -12.166137 -14.506824 15.731750
RightToeBase 14.947289 -0.000000 -0.000000
LeftUpLeg 4.791479 1.784274 2.592109
LeftLeg -1.069585 -0.000000 0.000000
LeftFoot -10.577896 14.714735 -17.590094
LeftToeBase 9.703774 -0.000000 -0.000000
Spine 2.208245 13.252755 -1.563570
RightShoulder 16.713739 -24.911049 -18.942993
RightArm 39.603115 -44.356502 51.814432
RightForeArm 94.680701 -0.000000 88.938879
RightHand -9.149867 -0.000000 19.461787
RightHandThumb1 -24.326973 -0.000000 -32.862282
LeftShoulder -16.392051 35.108061 -2.962500
LeftArm 49.166837 26.029607 -49.532468
LeftForeArm 21.445160 -0.000000 29.163593
LeftHand -12.584654 -0.000000 -12.195844
LeftHandThumb1 -26.253704 0.000000 33.147579
Head -1.721876 -9.893944 8.424640
882
root 2.392618 37.044310 1.793450 -0.105218 -5.394428 1.046151
RightUpLeg 6.752453 -5.094187 -1.844051
RightLeg -4.748209 -0.000000 0.000000
RightFoot -12.174096 -14.504760 15.729417
RightToeBase 14.916709 -0.000000 -0.000000
LeftUpLeg 4.880172 1.559796 2.620086
LeftLeg -1.006321 -0.000000 0.000000
LeftFoot -10.652289 14.851591 -17.609728
LeftToeBase 9.697682 -0.000000 -0.000000
Spine 2.564731 13.369360 -1.539330
RightShoulder 16.652342 -24.825979 -18.954238
RightArm 39.441166 -44.184991 52.065833
RightForeArm 94.664325 -0.000000 88.810295
RightHand -9.109067 -0.000000 19.479598
RightHandThumb1 -24.326973 -0.000000 -32.862282
LeftShoulder -16.369462 35.085739 -2.890794
LeftArm 49.332204 25.974483 -49.513952
LeftForeArm 21.714030 -0.000000 29.279401
LeftHand -12.665531 -0.000000 -12.265110
LeftHandThumb1 -26.253704 0.000000 33.147579
Head -2.247324 -9.917494 8.765395
